<svg xmlns="http://www.w3.org/2000/svg" width="1200" height="630" viewBox="0 0 1200 630" role="img" aria-labelledby="title description">
  <title id="title">XOLO — AI X Automation</title>
  <desc id="description">Research, create, enhance, and schedule your X content with XOLO.</desc>
  <defs>
    <linearGradient id="background" x1="0" y1="0" x2="1" y2="1">
      <stop offset="0" stop-color="#111113"/>
      <stop offset="1" stop-color="#29243d"/>
    </linearGradient>
    <radialGradient id="glow" cx="0.78" cy="0.2" r="0.65">
      <stop offset="0" stop-color="#8b5cf6" stop-opacity="0.75"/>
      <stop offset="1" stop-color="#8b5cf6" stop-opacity="0"/>
    </radialGradient>
  </defs>
  <rect width="1200" height="630" fill="url(#background)"/>
  <rect width="1200" height="630" fill="url(#glow)"/>
  <circle cx="1000" cy="110" r="180" fill="none" stroke="#a78bfa" stroke-opacity="0.2" stroke-width="2"/>
  <circle cx="1000" cy="110" r="250" fill="none" stroke="#a78bfa" stroke-opacity="0.12" stroke-width="2"/>
  <rect x="88" y="86" width="78" height="78" rx="20" fill="#fff"/>
  <path d="M108 106h14l14 18 14-18h14l-21 27 21 27h-14l-14-18-14 18h-14l21-27-21-27Z" fill="#171717"/>
  <circle cx="153" cy="101" r="6" fill="#8b5cf6"/>
  <text x="88" y="282" fill="#fff" font-family="Arial, Helvetica, sans-serif" font-size="78" font-weight="700" letter-spacing="-3">XOLO</text>
  <text x="92" y="344" fill="#c4b5fd" font-family="Arial, Helvetica, sans-serif" font-size="28" font-weight="600">AI X AUTOMATION</text>
  <text x="92" y="420" fill="#e4e4e7" font-family="Arial, Helvetica, sans-serif" font-size="30">Research. Create. Enhance. Schedule.</text>
  <rect x="92" y="492" width="142" height="6" rx="3" fill="#8b5cf6"/>
  <rect x="246" y="492" width="62" height="6" rx="3" fill="#c4b5fd" fill-opacity="0.6"/>
</svg>
